<svg xmlns="http://www.w3.org/2000/svg" width="24" height="24" fill="none" viewBox="0 0 24 24">
  <path fill="#030D45" fill-rule="evenodd" d="M12 5.548a2.315 2.315 0 00-2.308 2.323A2.315 2.315 0 0012 10.193a2.315 2.315 0 002.308-2.322A2.315 2.315 0 0012 5.548zM8.154 7.871C8.154 5.733 9.876 4 12 4s3.846 1.733 3.846 3.87c0 2.139-1.722 3.872-3.846 3.872S8.154 10.009 8.154 7.87zM10.482 14.839a2.85 2.85 0 00-2.841 2.86.411.411 0 00.007.08c.411.23 1.574.673 4.352.673 2.778 0 3.94-.444 4.352-.672v-.007a.406.406 0 00.007-.075 2.85 2.85 0 00-2.842-2.86h-3.034zm-4.38 2.86c0-2.435 1.962-4.409 4.38-4.409h3.036c2.418 0 4.38 1.974 4.38 4.408 0 .435-.147 1.05-.728 1.394-.706.418-2.164.908-5.17.908-3.007 0-4.464-.49-5.17-.908-.581-.344-.727-.96-.727-1.394zM16.642 5.604a.769.769 0 01.943-.545c1.404.382 2.364 1.77 2.364 3.328 0 1.647-1.124 3.155-2.73 3.35a.77.77 0 01-.855-.677.773.773 0 01.672-.861c.703-.085 1.374-.809 1.374-1.812 0-.952-.579-1.657-1.226-1.833a.775.775 0 01-.542-.95zM18.424 13.916a.77.77 0 01.903-.611A3.322 3.322 0 0122 16.57v.42c0 .396-.118.997-.67 1.352-.344.221-.866.45-1.656.61a.774.774 0 01-.305-1.518c.585-.119.916-.268 1.087-.369v-.001a.45.45 0 00.006-.075v-.419c0-.85-.6-1.583-1.43-1.746a.774.774 0 01-.608-.908zM7.358 11.17a.769.769 0 01-.943.545C5.01 11.333 4.05 9.945 4.05 8.387c0-1.647 1.124-3.155 2.729-3.35a.77.77 0 01.856.677c.05.425-.25.81-.672.861-.703.085-1.374.809-1.374 1.812 0 .952.579 1.657 1.226 1.833.41.112.653.537.542.95zM5.576 13.916a.77.77 0 00-.903-.611A3.322 3.322 0 002 16.57v.42c0 .396.118.997.67 1.352.344.221.867.45 1.656.61a.774.774 0 00.305-1.518c-.585-.119-.916-.268-1.087-.369v-.001a.452.452 0 01-.006-.075v-.419c0-.85.6-1.583 1.43-1.746a.774.774 0 00.608-.908z" clip-rule="evenodd"/>
</svg>
