<svg xmlns="http://www.w3.org/2000/svg" width="24" height="24" fill="none" viewBox="0 0 24 24">
  <path fill="#11004D" d="M21.884 15.298a29.39 29.39 0 01-.714 4.398C20.965 20.953 19.74 22 18.413 22h-1.634c-.918 0-1.633-.733-1.633-1.675V16.03c0-1.047-.817-1.884-1.838-1.884H10.96c-1.021 0-1.838.837-1.838 1.884v4.294c0 .942-.715 1.675-1.634 1.675h-1.94c-1.327 0-2.45-.942-2.756-2.304-.306-1.36-.572-2.663-.715-4.398-.181-2.2 0-4.293.102-5.654 0-.838.51-1.675 1.225-2.199l7.147-4.921c.409-.315.92-.524 1.43-.524.51 0 1.123.21 1.531.524l7.147 4.921c.715.524 1.225 1.361 1.225 2.199.102 1.361.2 3.455 0 5.654z"/>
</svg>
