<svg xmlns="http://www.w3.org/2000/svg" width="20" height="18" fill="none" viewBox="0 0 20 18">
  <path fill="#11004C" fill-rule="evenodd" d="M6.923 1.543a2.311 2.311 0 00-2.308 2.314 2.311 2.311 0 002.308 2.314 2.311 2.311 0 002.308-2.314 2.311 2.311 0 00-2.308-2.314zM3.077 3.857A3.852 3.852 0 016.923 0a3.852 3.852 0 013.846 3.857 3.852 3.852 0 01-3.846 3.857 3.852 3.852 0 01-3.846-3.857z" clip-rule="evenodd"/>
  <path fill="#11004C" fill-rule="evenodd" d="M0 3.857a.77.77 0 01.77-.771h3.076a.77.77 0 010 1.543H.77A.77.77 0 010 3.857zM9.23 3.857a.77.77 0 01.77-.771h9.23a.77.77 0 010 1.543H10a.77.77 0 01-.77-.772zM13.077 11.829a2.31 2.31 0 012.307 2.314 2.311 2.311 0 01-2.307 2.314 2.311 2.311 0 01-2.308-2.314 2.31 2.31 0 012.308-2.315zm3.846 2.314a3.852 3.852 0 00-3.846-3.857 3.852 3.852 0 00-3.846 3.857A3.852 3.852 0 0013.077 18a3.852 3.852 0 003.846-3.857z" clip-rule="evenodd"/>
  <path fill="#11004C" fill-rule="evenodd" d="M20 14.143a.77.77 0 00-.77-.772h-3.076a.77.77 0 000 1.543h3.077a.77.77 0 00.769-.771zM10.77 14.143a.77.77 0 00-.77-.771H.77a.77.77 0 000 1.542H10a.77.77 0 00.77-.771z" clip-rule="evenodd"/>
</svg>
